<?xml version="1.0" standalone="no"?>
<!DOCTYPE svg PUBLIC "-//W3C//DTD SVG 20010904//EN"
 "http://www.w3.org/TR/2001/REC-SVG-20010904/DTD/svg10.dtd">
<svg version="1.0" xmlns="http://www.w3.org/2000/svg"
 width="500.000000pt" height="500.000000pt" viewBox="0 0 500.000000 500.000000"
 preserveAspectRatio="xMidYMid meet">

<g transform="translate(0.000000,500.000000) scale(0.100000,-0.100000)"
fill="#000000" stroke="none">
<path d="M3569 4251 c-90 -35 -157 -93 -435 -373 -280 -283 -402 -420 -567
-639 -96 -128 -154 -187 -216 -218 -59 -30 -64 -28 -57 23 l7 44 -60 10 c-87
16 -153 54 -249 145 -121 115 -121 115 -197 182 -38 33 -73 65 -79 72 -30 33
-36 43 -36 58 0 8 -13 34 -30 57 -16 22 -30 53 -30 68 0 30 -23 56 -40 45 -6
-4 -9 -20 -6 -38 l6 -32 -14 35 c-8 19 -15 50 -15 68 -1 27 3 32 22 32 20 0
83 -33 147 -77 35 -24 -75 76 -120 109 -65 48 -99 54 -113 18 -3 -8 -6 2 -6
23 -1 20 -5 37 -11 37 -5 0 -10 7 -10 15 0 8 -4 15 -10 15 -5 0 -10 -10 -10
-22 -1 -23 -1 -23 -16 2 -32 52 -6 -62 41 -180 53 -134 78 -231 73 -292 l-3
-43 -14 58 c-17 67 -35 87 -25 28 9 -55 -18 -58 -32 -3 -7 28 -14 37 -30 36
-12 0 -21 5 -20 10 0 6 -6 28 -13 48 -16 40 -40 57 -52 36 -5 -7 -12 -13 -17
-13 -5 0 -16 -8 -26 -18 -11 -11 -26 -15 -37 -12 -14 5 -19 1 -19 -12 -1 -15
-4 -14 -22 7 -11 14 -25 24 -29 22 -5 -1 -9 8 -10 20 0 13 -7 39 -15 58 l-14
35 5 -37 c3 -21 2 -38 -3 -38 -12 0 -31 43 -38 91 -7 44 -24 64 -24 27 1 -47
38 -179 56 -199 36 -40 71 -51 138 -44 l62 7 40 -44 c22 -23 82 -99 134 -168
52 -69 129 -171 172 -228 43 -57 83 -113 89 -125 7 -12 47 -59 90 -103 77 -82
90 -106 105 -196 6 -34 3 -41 -49 -95 -30 -32 -58 -70 -62 -84 -6 -26 -235
-331 -299 -399 -18 -19 -84 -98 -147 -175 -292 -356 -429 -552 -475 -682 -41
-116 -28 -231 32 -301 37 -44 84 -66 161 -77 l52 -7 19 39 c11 21 25 57 31 80
10 38 9 47 -14 92 -14 28 -25 67 -25 87 0 51 67 187 128 260 28 34 49 63 47
66 -2 2 11 26 30 54 19 27 51 75 72 107 21 32 84 127 140 210 56 84 141 213
188 287 77 121 150 224 339 476 33 43 94 112 138 152 50 47 93 99 120 145 49
84 97 143 203 250 66 66 82 77 111 77 19 0 34 -2 34 -4 0 -11 -76 -137 -115
-191 -49 -68 -159 -180 -178 -180 -43 -2 -60 -22 -234 -264 -34 -47 -67 -92
-73 -99 -10 -11 -53 -77 -97 -147 -20 -31 -43 -85 -67 -150 -40 -110 -115
-234 -183 -302 -67 -67 -123 -148 -123 -177 0 -10 -4 -15 -9 -12 -4 3 -6 -11
-4 -30 5 -52 7 -58 17 -65 14 -11 -2 -73 -29 -109 -13 -18 -22 -37 -19 -41 3
-5 -7 -29 -21 -54 -14 -25 -25 -50 -25 -55 0 -5 -16 -36 -35 -69 -20 -33 -34
-64 -33 -68 2 -7 -71 -168 -104 -228 -30 -53 239 210 387 380 115 132 130 139
217 109 86 -29 121 10 173 191 29 102 76 229 110 295 28 56 134 192 145 188 5
-2 56 -69 114 -151 149 -208 186 -253 186 -229 0 63 33 67 116 14 92 -60 241
-189 276 -240 18 -25 65 -118 105 -206 91 -197 100 -208 165 -200 55 7 66 2
166 -83 66 -56 116 -70 129 -37 10 27 -7 59 -139 259 -68 105 -171 267 -228
360 -57 94 -113 179 -125 190 -39 37 -191 322 -227 425 -21 60 -35 186 -18
160 8 -12 10 -9 10 12 0 14 4 28 9 30 4 2 11 12 15 24 5 15 -9 42 -54 104 -85
118 -94 162 -49 251 18 37 41 49 91 49 51 0 105 30 134 73 15 23 47 97 70 164
51 150 66 175 102 171 20 -2 31 -14 50 -53 69 -147 77 -160 99 -163 28 -4 45
29 67 128 30 141 63 275 91 365 15 50 35 119 45 155 34 119 50 153 108 234 81
113 102 149 102 179 0 30 -18 46 -31 26 -5 -8 -9 -9 -10 -4 -5 26 -6 43 -8 80
-2 39 -2 39 -15 16 -10 -17 -15 -20 -18 -10 -3 8 -7 12 -10 9 -18 -20 -103
-151 -122 -188 -24 -47 -60 -192 -71 -287 -13 -111 -18 -134 -45 -225 -54
-177 -106 -268 -118 -205 -3 10 0 15 7 11 6 -4 20 8 31 26 25 42 26 57 1 27
-14 -18 -23 -21 -31 -13 -8 8 -2 32 23 90 38 87 60 167 77 289 17 110 69 251
134 359 30 50 58 99 62 110 6 16 4 17 -14 7 -30 -16 -32 -14 -32 19 0 27 -3
30 -32 30 -18 -1 -54 -9 -79 -19z m-1825 -937 c3 -8 2 -12 -4 -9 -6 3 -10 10
-10 16 0 14 7 11 14 -7z m50 -108 c19 -45 37 -94 40 -111 l6 -30 -13 30 c-6
17 -30 66 -52 111 -23 47 -35 81 -28 81 7 0 28 -37 47 -81z m73 -268 c-3 -7
-5 -2 -5 12 0 14 2 19 5 13 2 -7 2 -19 0 -25z m143 -479 c0 -5 -51 -85 -112
-179 -202 -303 -323 -492 -402 -627 -43 -72 -104 -164 -134 -205 -31 -40 -80
-106 -109 -147 -29 -40 -53 -70 -53 -66 0 13 43 78 106 160 66 86 113 158 161
245 44 80 142 237 236 377 119 176 197 300 234 368 50 92 53 96 63 90 6 -3 10
-10 10 -16z m934 -195 c3 -8 2 -12 -4 -9 -6 3 -10 10 -10 16 0 14 7 11 14 -7z
m-1763 -1091 c-12 -20 -14 -14 -5 12 4 9 9 14 11 11 3 -2 0 -13 -6 -23z m-14
-45 c-3 -8 -6 -5 -6 6 -1 11 2 17 5 13 3 -3 4 -12 1 -19z m0 -160 c-2 -13 -4
-5 -4 17 -1 22 1 32 4 23 2 -10 2 -28 0 -40z"/>
<path d="M1131 4074 c0 -11 3 -14 6 -6 3 7 2 16 -1 19 -3 4 -6 -2 -5 -13z"/>
<path d="M1132 3990 c0 -14 2 -19 5 -12 2 6 2 18 0 25 -3 6 -5 1 -5 -13z"/>
<path d="M1132 3913 c-1 -28 1 -42 8 -38 12 7 14 72 3 78 -5 3 -9 -15 -11 -40z"/>
<path d="M1055 3930 c-11 -18 -14 -70 -4 -76 4 -2 5 -20 2 -39 -3 -20 -1 -41
6 -48 6 -8 8 -17 4 -20 -3 -4 -2 -7 4 -7 18 0 20 22 9 115 -8 63 -14 86 -21
75z"/>
<path d="M1148 3789 c6 -8 9 -26 6 -40 l-5 -24 11 24 c9 20 7 28 -7 40 -15 14
-16 14 -5 0z"/>
<path d="M3021 2420 c0 -33 1 -34 10 -11 6 16 6 28 -1 35 -7 7 -10 -1 -9 -24z"/>
<path d="M3260 2111 c0 -12 4 -21 9 -21 5 0 16 -14 25 -30 8 -17 10 -28 5 -25
-5 4 -9 -3 -9 -14 0 -12 4 -21 8 -21 9 0 42 -101 42 -129 0 -10 17 -45 39 -77
127 -194 385 -694 396 -766 8 -58 -15 -112 -54 -132 -30 -16 -100 -8 -170 18
-57 21 -77 20 -101 -4 -33 -33 -25 -63 41 -142 86 -103 122 -133 185 -153 91
-29 233 1 313 64 61 48 84 114 79 225 -3 80 -7 100 -37 160 -39 81 -133 223
-279 424 -96 134 -130 179 -301 402 -35 47 -84 111 -109 143 -24 31 -48 57
-53 57 -5 0 -9 6 -9 14 0 8 -4 18 -10 21 -5 3 -10 -3 -10 -14z m333 -1248 c-7
-2 -19 -2 -25 0 -7 3 -2 5 12 5 14 0 19 -2 13 -5z"/>
<path d="M3291 1973 c0 -4 4 -17 9 -28 8 -19 9 -19 9 2 1 12 -3 25 -9 28 -5 3
-10 3 -9 -2z"/>
</g>
</svg>
